<?xml version="1.0" encoding="UTF-8"?>
<svg version="1.1" xmlns="http://www.w3.org/2000/svg" width="512" height="512">
<path d="M0 0 C1.01790619 0.00215515 2.03581238 0.0043103 3.08456421 0.00653076 C17.69363523 0.05620146 32.02575853 0.30709809 46.375 3.3125 C47.34985352 3.51117676 48.32470703 3.70985352 49.32910156 3.91455078 C97.7109774 14.03517194 141.69928269 35.9516877 177.375 70.3125 C178.3640332 71.26068604 178.3640332 71.26068604 179.37304688 72.22802734 C188.86130305 81.37247479 197.6012044 90.66984009 205.375 101.3125 C206.23306152 102.46355017 207.09113451 103.61459177 207.94921875 104.765625 C213.98736829 112.95680614 219.34595521 121.47054105 224.375 130.3125 C224.73948242 130.94430176 225.10396484 131.57610352 225.47949219 132.22705078 C247.00981855 169.84336237 256.83759735 212.56515288 256.75 255.625 C256.74918427 257.13927582 256.74918427 257.13927582 256.74835205 258.68414307 C256.70758601 275.19373539 255.80029309 291.11032001 252.375 307.3125 C252.15537598 308.35438477 251.93575195 309.39626953 251.70947266 310.46972656 C242.71140931 351.72199434 223.99081216 390.29861405 196.375 422.3125 C195.74078125 423.05757813 195.1065625 423.80265625 194.453125 424.5703125 C182.64198485 438.07529833 169.89139772 450.74668743 155.375 461.3125 C154.22505169 462.16899066 153.07531411 463.02576433 151.92578125 463.8828125 C143.73565742 469.92284209 135.23120382 475.30617614 126.375 480.3125 C125.66778809 480.7146875 124.96057617 481.116875 124.23193359 481.53125 C101.11239063 494.54775099 75.96330247 503.281052 50 508.625 C49.28948486 508.77235596 48.57896973 508.91971191 47.84692383 509.0715332 C32.20458949 512.05794017 16.56823907 512.68730954 0.6875 512.625 C-0.27989105 512.62317719 -1.2472821 512.62135437 -2.24398804 512.61947632 C-16.57690977 512.57404826 -30.52273917 512.06516072 -44.625 509.3125 C-45.52202637 509.15152832 -46.41905273 508.99055664 -47.34326172 508.82470703 C-96.03093124 500.01471851 -141.05505908 476.57143453 -176.625 442.3125 C-177.28435547 441.68037598 -177.94371094 441.04825195 -178.62304688 440.39697266 C-188.11130305 431.25252521 -196.8512044 421.95515991 -204.625 411.3125 C-205.48306152 410.16144983 -206.34113451 409.01040823 -207.19921875 407.859375 C-213.23736829 399.66819386 -218.59595521 391.15445895 -223.625 382.3125 C-223.98948242 381.68069824 -224.35396484 381.04889648 -224.72949219 380.39794922 C-239.66085402 354.31089649 -249.13420268 324.97749753 -253.625 295.3125 C-253.80232666 294.19367432 -253.97965332 293.07484863 -254.16235352 291.92211914 C-255.84376341 280.20014053 -255.98234341 268.57751024 -255.9375 256.75 C-255.93426727 255.21939438 -255.93426727 255.21939438 -255.93096924 253.65786743 C-255.88133352 239.03039476 -255.63419712 224.67986162 -252.625 210.3125 C-252.42632324 209.33764648 -252.22764648 208.36279297 -252.02294922 207.35839844 C-241.90232806 158.9765226 -219.9858123 114.98821731 -185.625 79.3125 C-184.99287598 78.65314453 -184.36075195 77.99378906 -183.70947266 77.31445312 C-174.56502521 67.82619695 -165.26765991 59.0862956 -154.625 51.3125 C-153.47394983 50.45443848 -152.32290823 49.59636549 -151.171875 48.73828125 C-142.98224019 42.70072604 -134.47961724 37.31792698 -125.625 32.3125 C-124.91778809 31.9103125 -124.21057617 31.508125 -123.48193359 31.09375 C-100.34654164 18.0683259 -75.17537591 9.31948539 -49.1875 4 C-48.46860596 3.85264404 -47.74971191 3.70528809 -47.0090332 3.5534668 C-31.36274391 0.57960912 -15.88931954 -0.06050362 0 0 Z " fill="#1977F2" transform="translate(255.625,-0.3125)"/>
<path d="M0 0 C0 20.79 0 41.58 0 63 C-19.25 63.3125 -19.25 63.3125 -25.24707031 63.38793945 C-39.25370088 63.63537487 -52.68436582 64.55413019 -63.58984375 74.44140625 C-72.89148802 84.81740457 -73.27208035 98.28111041 -73.4140625 111.546875 C-73.44052856 113.0620874 -73.44052856 113.0620874 -73.4675293 114.60791016 C-73.52980896 118.32178885 -73.57653544 122.03591534 -73.625 125.75 C-73.74875 134.0825 -73.8725 142.415 -74 151 C-50.57 151 -27.14 151 -3 151 C-4.12516158 163.37677741 -4.12516158 163.37677741 -4.92382812 168.60131836 C-5.18915344 170.3525425 -5.18915344 170.3525425 -5.45983887 172.1391449 C-5.64840454 173.36037552 -5.83697021 174.58160614 -6.03125 175.83984375 C-6.22722778 177.12435928 -6.42320557 178.40887482 -6.62512207 179.73231506 C-7.03658681 182.42774085 -7.45027006 185.12281301 -7.86572266 187.81762695 C-8.39721105 191.26569501 -8.92402025 194.71445808 -9.44931793 198.16347408 C-9.95373829 201.47258009 -10.46130649 204.78119994 -10.96875 208.08984375 C-11.25159851 209.94294411 -11.25159851 209.94294411 -11.54016113 211.83348083 C-11.80548645 213.55160728 -11.80548645 213.55160728 -12.07617188 215.30444336 C-12.23081909 216.31051132 -12.38546631 217.31657928 -12.5447998 218.35313416 C-12.92921733 220.58841792 -13.44990534 222.79962135 -14 225 C-33.8 225 -53.6 225 -74 225 C-74 284.4 -74 343.8 -74 405 C-94.74934743 407.30548305 -94.74934743 407.30548305 -102.78515625 407.265625 C-103.69599472 407.26753845 -104.60683319 407.2694519 -105.54527283 407.27142334 C-107.43781822 407.27276211 -109.33037356 407.26923105 -111.22290039 407.26074219 C-114.06353009 407.2499961 -116.90352955 407.26072455 -119.74414062 407.2734375 C-130.91724905 407.28166485 -141.96849029 406.90683356 -153 405 C-154 404 -154 404 -154.12304783 401.08144283 C-154.12212604 399.76235707 -154.12120424 398.44327131 -154.12025452 397.08421326 C-154.12110894 396.35240296 -154.12196337 395.62059266 -154.12284368 394.8666063 C-154.12450066 392.39599121 -154.11897359 389.9254429 -154.11352539 387.45483398 C-154.11324354 385.69116213 -154.11340121 383.92749015 -154.1139679 382.16381836 C-154.11425595 377.36030157 -154.10835792 372.55680953 -154.10139394 367.75329852 C-154.09516174 362.73910315 -154.09455671 357.72490727 -154.09336853 352.71070862 C-154.09025482 343.2086324 -154.08204089 333.70656762 -154.07201904 324.20449644 C-154.06085914 313.38968661 -154.05534776 302.57487625 -154.05032361 291.7600621 C-154.03985831 269.50670025 -154.02151234 247.2533541 -154 225 C-175.45 225 -196.9 225 -219 225 C-219 200.58 -219 176.16 -219 151 C-197.55 151 -176.1 151 -154 151 C-154.04640625 145.96234375 -154.0928125 140.9246875 -154.140625 135.734375 C-154.16111862 132.49867668 -154.18037799 129.26306097 -154.1953125 126.02734375 C-154.21901176 120.91730658 -154.24671099 115.80756216 -154.30175781 110.69775391 C-154.66333975 76.20655585 -152.03675819 45.5427286 -127 19 C-117.01317972 9.65233622 -104.99829624 3.10174745 -92 -1 C-90.14568359 -1.59167969 -90.14568359 -1.59167969 -88.25390625 -2.1953125 C-61.5896442 -9.62913906 -26.45706907 -6.61426727 0 0 Z " fill="#FEFEFE" transform="translate(370,105)"/>
</svg>
