<svg width="32" height="33" viewBox="0 0 32 33" fill="none" xmlns="http://www.w3.org/2000/svg">
<path opacity="0.1" fill-rule="evenodd" clip-rule="evenodd" d="M0 16.2341C0 7.39758 7.16344 0.234131 16 0.234131C24.8366 0.234131 32 7.39758 32 16.2341C32 25.0707 24.8366 32.2341 16 32.2341C7.16344 32.2341 0 25.0707 0 16.2341Z" fill="white"/>
<path fill-rule="evenodd" clip-rule="evenodd" d="M24.5333 16.2223C24.5333 16.7994 24.4746 17.3757 24.3592 17.9374C24.2467 18.4859 24.08 19.0243 23.8617 19.5389C23.6483 20.0445 23.3837 20.5317 23.0745 20.9861C22.77 21.4376 22.4191 21.8612 22.0337 22.2473C21.6474 22.6317 21.2224 22.9816 20.7711 23.2875C20.3152 23.5945 19.8273 23.8587 19.3215 24.0731C18.806 24.2903 18.2664 24.4567 17.7184 24.569C17.1559 24.6847 16.5776 24.7438 15.9996 24.7438C15.4213 24.7438 14.8429 24.6847 14.2812 24.569C13.7324 24.4567 13.1928 24.2903 12.6778 24.0731C12.1719 23.8587 11.6836 23.5945 11.2277 23.2875C10.7764 22.9817 10.3514 22.6317 9.96599 22.2473C9.58015 21.8612 9.22928 21.4376 8.92427 20.9861C8.61675 20.5317 8.35172 20.0445 8.13755 19.5389C7.91918 19.0243 7.75211 18.4858 7.63919 17.9374C7.52503 17.3757 7.46667 16.7994 7.46667 16.2223C7.46667 15.6448 7.52499 15.0673 7.63922 14.5067C7.75215 13.9583 7.91922 13.4191 8.13759 12.9052C8.35175 12.3993 8.61678 11.9116 8.9243 11.4573C9.22931 11.0054 9.58018 10.5826 9.96602 10.1961C10.3515 9.8116 10.7765 9.46253 11.2278 9.15713C11.6836 8.84879 12.172 8.5846 12.6778 8.36988C13.1929 8.15223 13.7324 7.9854 14.2812 7.8739C14.8429 7.75907 15.4213 7.70081 15.9997 7.70081C16.5776 7.70081 17.1559 7.75907 17.7185 7.8739C18.2664 7.98543 18.806 8.15226 19.3215 8.36988C19.8273 8.58457 20.3153 8.84879 20.7711 9.15713C21.2224 9.46253 21.6475 9.8116 22.0337 10.1961C22.4191 10.5826 22.77 11.0054 23.0746 11.4573C23.3837 11.9116 23.6483 12.3993 23.8617 12.9052C24.08 13.4191 24.2467 13.9583 24.3592 14.5067C24.4746 15.0673 24.5333 15.6448 24.5333 16.2223ZM12.8903 9.64019C10.8581 10.5985 9.34131 12.4683 8.86836 14.7219C9.06048 14.7236 12.0973 14.7618 15.5962 13.8335C14.3349 11.5958 12.9874 9.76963 12.8903 9.64019ZM16.2 14.9541C12.4477 16.0758 8.84711 15.9951 8.71795 15.9901C8.71585 16.0683 8.71211 16.1441 8.71211 16.2223C8.71211 18.0918 9.41839 19.796 10.5793 21.0847C10.5768 21.0809 12.5711 17.5479 16.5038 16.2781C16.5988 16.2464 16.6955 16.2181 16.7913 16.1907C16.6084 15.7771 16.4087 15.3627 16.2 14.9541ZM20.8124 10.7607C19.5293 9.63102 17.8447 8.94577 15.9996 8.94577C15.4075 8.94577 14.8329 9.01734 14.2824 9.14965C14.3916 9.29613 15.7604 11.1094 17.0067 13.3945C19.7565 12.3652 20.7944 10.7873 20.8124 10.7607ZM17.288 17.3965C17.2718 17.4019 17.2556 17.4065 17.2397 17.4123C12.94 18.9091 11.5358 21.9256 11.5206 21.9585C12.7578 22.9192 14.3096 23.4988 15.9996 23.4988C17.0088 23.4988 17.9701 23.2937 18.8448 22.9221C18.7368 22.2864 18.3135 20.0578 17.288 17.3965ZM20.0719 22.2572C21.7082 21.1546 22.8703 19.4037 23.1945 17.3757C23.0445 17.3274 21.0057 16.6829 18.6535 17.0594C19.6093 19.6825 19.9977 21.8187 20.0719 22.2572ZM17.5676 14.4789C17.7368 14.8259 17.9006 15.1791 18.0518 15.5341C18.1056 15.6614 18.1581 15.7863 18.2093 15.9111C20.7128 15.5965 23.1792 16.1257 23.2846 16.1474C23.2679 14.4223 22.65 12.8391 21.6275 11.5996C21.6137 11.6191 20.4449 13.3055 17.5676 14.4789Z" fill="white"/>
</svg>
