<svg width="32" height="33" viewBox="0 0 32 33" fill="none" xmlns="http://www.w3.org/2000/svg">
<path opacity="0.1" fill-rule="evenodd" clip-rule="evenodd" d="M0 16.2341C0 7.39758 7.16344 0.234131 16 0.234131C24.8366 0.234131 32 7.39758 32 16.2341C32 25.0707 24.8366 32.2341 16 32.2341C7.16344 32.2341 0 25.0707 0 16.2341Z" fill="white"/>
<path fill-rule="evenodd" clip-rule="evenodd" d="M22.6677 10.7337C23.4021 10.9352 23.9804 11.5289 24.1767 12.2829C24.5333 13.6495 24.5333 16.5008 24.5333 16.5008C24.5333 16.5008 24.5333 19.352 24.1767 20.7186C23.9804 21.4726 23.4021 22.0664 22.6677 22.268C21.3369 22.6341 16 22.6341 16 22.6341C16 22.6341 10.6631 22.6341 9.33218 22.268C8.59783 22.0664 8.0195 21.4726 7.82323 20.7186C7.46667 19.352 7.46667 16.5008 7.46667 16.5008C7.46667 16.5008 7.46667 13.6495 7.82323 12.2829C8.0195 11.5289 8.59783 10.9352 9.33218 10.7337C10.6631 10.3674 16 10.3674 16 10.3674C16 10.3674 21.3369 10.3674 22.6677 10.7337ZM14.4 14.1007V19.434L18.6667 16.7675L14.4 14.1007Z" fill="white"/>
</svg>
