<svg width="32" height="33" viewBox="0 0 32 33" fill="none" xmlns="http://www.w3.org/2000/svg">
<path opacity="0.1" fill-rule="evenodd" clip-rule="evenodd" d="M0 16.2341C0 7.39758 7.16344 0.234131 16 0.234131C24.8366 0.234131 32 7.39758 32 16.2341C32 25.0707 24.8366 32.2341 16 32.2341C7.16344 32.2341 0 25.0707 0 16.2341Z" fill="white"/>
<path fill-rule="evenodd" clip-rule="evenodd" d="M15.5208 13.2391L15.5544 13.7927L14.9948 13.725C12.9579 13.4651 11.1784 12.5838 9.66756 11.1037L8.92891 10.3692L8.73865 10.9116C8.33575 12.1205 8.59316 13.3973 9.43253 14.256C9.8802 14.7305 9.77948 14.7983 9.00725 14.5159C8.73865 14.4255 8.50363 14.3577 8.48124 14.3916C8.4029 14.4707 8.6715 15.4988 8.88414 15.9056C9.17513 16.4705 9.76828 17.0242 10.4174 17.3518L10.9658 17.6117L10.3167 17.623C9.68994 17.623 9.66756 17.6343 9.73471 17.8716C9.95854 18.606 10.8427 19.3856 11.8276 19.7246L12.5214 19.9618L11.9171 20.3234C11.0218 20.8431 9.96973 21.1369 8.91772 21.1595C8.41409 21.1708 8 21.216 8 21.2499C8 21.3629 9.36538 21.9956 10.16 22.2442C12.5438 22.9786 15.3753 22.6622 17.5017 21.4081C19.0126 20.5155 20.5235 18.7416 21.2286 17.0242C21.6091 16.109 21.9896 14.4368 21.9896 13.6346C21.9896 13.1148 22.0232 13.047 22.6499 12.4256C23.0192 12.064 23.3662 11.6686 23.4333 11.5556C23.5452 11.3409 23.534 11.3409 22.9633 11.533C22.012 11.872 21.8777 11.8268 22.3477 11.3183C22.6947 10.9568 23.1088 10.3014 23.1088 10.1094C23.1088 10.0755 22.9409 10.132 22.7506 10.2337C22.5492 10.3466 22.1015 10.5161 21.7658 10.6178L21.1614 10.8099L20.613 10.437C20.3108 10.2337 19.8856 10.0077 19.6617 9.93989C19.0909 9.78171 18.218 9.8043 17.7032 9.98508C16.3042 10.4935 15.4201 11.8042 15.5208 13.2391Z" fill="white"/>
</svg>
